<svg id="icons" xmlns="http://www.w3.org/2000/svg" viewBox="0 0 340 340"><path d="M145.457,106.94H308.512a20.113,20.113,0,0,1,20.112,20.112V252.335a20.113,20.113,0,0,1-20.112,20.112H279.936l8.354,32.822a3.7,3.7,0,0,1-5.473,4.088L224.325,274.53a14.788,14.788,0,0,0-7.57-2.083h-71.3a20.112,20.112,0,0,1-20.112-20.112V127.052A20.112,20.112,0,0,1,145.457,106.94Z" style="fill:#88b0ea"/><path d="M125.345,127.052V204.42H236.761a26.993,26.993,0,0,0,26.993-26.992V106.94h-118.3A20.112,20.112,0,0,0,125.345,127.052Z" style="fill:#648ecc"/><path d="M232.191,26.072H31.488A20.113,20.113,0,0,0,11.375,46.184V171.467a20.113,20.113,0,0,0,20.113,20.112H60.064L51.709,224.4a3.7,3.7,0,0,0,5.473,4.088l58.492-34.827a14.8,14.8,0,0,1,7.57-2.083H232.191A20.112,20.112,0,0,0,252.3,171.467V46.184A20.112,20.112,0,0,0,232.191,26.072Z" style="fill:#ffd071"/><path d="M138.965,109.552c-.09,5.258-7.911,5.257-8,0C131.055,104.294,138.876,104.3,138.965,109.552Z" style="fill:#fff"/><path d="M103.51,109.552c-.09,5.258-7.911,5.257-8,0C95.6,104.294,103.421,104.3,103.51,109.552Z" style="fill:#fff"/><path d="M174.42,109.552c-.089,5.258-7.911,5.257-8,0C166.51,104.294,174.331,104.3,174.42,109.552Z" style="fill:#fff"/><path d="M290.5,317.928a3.99,3.99,0,0,1-2.046-.564l-68.722-40.918h-74.27a24.138,24.138,0,0,1-24.112-24.111v-37.3c.1-5.241,7.9-5.275,8,0v37.3a16.129,16.129,0,0,0,16.112,16.111h75.37a4,4,0,0,1,2.047.564l61.359,36.534-8.173-32.111a4.025,4.025,0,0,1,3.876-4.987h28.576a16.13,16.13,0,0,0,16.112-16.111V127.052a16.13,16.13,0,0,0-16.112-16.112H252.3a4,4,0,0,1,0-8h56.209a24.139,24.139,0,0,1,24.112,24.112V252.335a24.138,24.138,0,0,1-24.112,24.111H285.081l9.29,36.495A4.028,4.028,0,0,1,290.5,317.928Z" style="fill:#383a49"/><path d="M49.505,237.061a4.028,4.028,0,0,1-3.876-4.987l9.289-36.5H31.487A24.138,24.138,0,0,1,7.376,171.467V46.185A24.139,24.139,0,0,1,31.487,22.072h200.7A24.14,24.14,0,0,1,256.3,46.185V171.467a24.139,24.139,0,0,1-24.113,24.112H120.273L51.552,236.5A4,4,0,0,1,49.505,237.061ZM31.487,30.072A16.13,16.13,0,0,0,15.376,46.185V171.467a16.13,16.13,0,0,0,16.111,16.112H60.063a4.025,4.025,0,0,1,3.876,4.986l-8.172,32.112,61.359-36.534a3.987,3.987,0,0,1,2.047-.564H232.19A16.13,16.13,0,0,0,248.3,171.467V46.185A16.131,16.131,0,0,0,232.19,30.072Z" style="fill:#383a49"/></svg>