<svg xmlns="http://www.w3.org/2000/svg" viewBox="0 0 48 48"><defs><style>.cls-1{fill:#f5de0a;}.cls-2{fill:#192835;}.cls-3{fill:#4891d3;}.cls-4{fill:#a1d51c;}</style></defs><title>Camera Video </title><g id="Camera_Video" data-name="Camera Video"><path class="cls-1" d="M41,17V41H39.47l-4.7-5.64A1,1,0,0,0,34,35H33V23h1a1,1,0,0,0,.77-.36L39.47,17Z"/><path class="cls-2" d="M27,15H11a6,6,0,0,0-6,6V37a6,6,0,0,0,6,6H27a6,6,0,0,0,6-6V21A6,6,0,0,0,27,15Zm4,22a4,4,0,0,1-4,4H11a4,4,0,0,1-4-4V21a4,4,0,0,1,4-4H27a4,4,0,0,1,4,4Z"/><rect class="cls-3" x="7" y="17" width="24" height="24" rx="4" ry="4"/><path class="cls-2" d="M42,15H39a1,1,0,0,0-.77.36L33.53,21H32a1,1,0,0,0-1,1V36a1,1,0,0,0,1,1h1.53l4.7,5.64A1,1,0,0,0,39,43h3a1,1,0,0,0,1-1V16A1,1,0,0,0,42,15ZM41,41H39.47l-.54-.65L37,38l-2.23-2.68A1,1,0,0,0,34,35H33V23h1a1,1,0,0,0,.77-.36L37,20l1.93-2.31.54-.65H41Z"/><path class="cls-4" d="M41,17V41H39.47l-.54-.65A.84.84,0,0,0,39,40V18a.84.84,0,0,0-.07-.35l.54-.65Z"/><path class="cls-2" d="M12,17a1,1,0,0,1-.71-.29,1,1,0,0,1,0-1.42l7-7A1,1,0,0,1,19,8h3a1,1,0,0,1,0,2H19.41l-6.7,6.71A1,1,0,0,1,12,17Z"/><path class="cls-2" d="M37,5H25a4,4,0,0,0,0,8H37a4,4,0,0,0,0-8Zm0,6H25a2,2,0,0,1,0-4H37a2,2,0,0,1,0,4Z"/><path class="cls-4" d="M39,9a2,2,0,0,1-2,2H25a2,2,0,0,1,0-4H37A2,2,0,0,1,39,9Z"/><path class="cls-2" d="M39,18V40a.84.84,0,0,1-.07.35A1,1,0,0,1,38,41a1,1,0,0,1-1-1V18a1,1,0,0,1,1-1,1,1,0,0,1,.93.65A.84.84,0,0,1,39,18Z"/><path class="cls-2" d="M26,21H24a1,1,0,0,1,0-2h2a1,1,0,0,1,0,2Z"/><path class="cls-2" d="M20,21a1,1,0,1,1,1-1A1,1,0,0,1,20,21Zm0-1Z"/><path class="cls-2" d="M25.51,28.14l-10-6A1,1,0,0,0,14,23V35a1,1,0,0,0,.51.87A1,1,0,0,0,15,36a1,1,0,0,0,.51-.14l10-6a1,1,0,0,0,0-1.72ZM16,33.23V24.77L23.06,29Z"/><polygon class="cls-1" points="23.06 29 16 33.23 16 24.77 23.06 29"/></g></svg>