<?xml version="1.0" encoding="iso-8859-1"?>
<!-- Generator: Adobe Illustrator 19.0.0, SVG Export Plug-In . SVG Version: 6.00 Build 0)  -->
<svg version="1.1" id="Layer_1" xmlns="http://www.w3.org/2000/svg" xmlns:xlink="http://www.w3.org/1999/xlink" x="0px" y="0px"
	 viewBox="0 0 512.001 512.001" style="enable-background:new 0 0 512.001 512.001;" xml:space="preserve">
<rect x="134.938" y="364.854" transform="matrix(-0.7071 0.7071 -0.7071 -0.7071 613.7028 575.7196)" style="fill:#62D9C7;" width="105.355" height="100.216"/>
<polygon style="fill:#298983;" points="274.195,228.982 274.195,150.853 196.066,150.853 107.215,239.704 110.282,392.894 "/>
<rect x="125.334" y="20.181" style="fill:#A5F2E5;" width="148.866" height="110.496"/>
<path style="fill:#62D9C7;" d="M414.956,174.517c-5.574,0-10.09-4.518-10.09-10.09V20.443h-110.49v279.276h110.49v-62.988
	c0-5.573,4.516-10.09,10.09-10.09l0,0V174.517L414.956,174.517z"/>
<path d="M404.866,236.731v62.988h-110.49V20.443h110.49v143.983c0,5.573,4.516,10.09,10.09,10.09l0,0
	c5.573,0,10.09-4.518,10.09-10.09V10.353c0-2.851-1.187-5.419-3.086-7.254C420.124,1.192,417.551,0,414.695,0H115.239
	c-5.574,0-10.09,4.518-10.09,10.09v130.672c0,5.573,4.516,10.09,10.09,10.09h52.288l-77.621,77.621
	c-1.246,1.246-2.095,2.736-2.552,4.316c-0.005,0.02-0.009,0.04-0.015,0.061c-0.085,0.297-0.156,0.597-0.213,0.9
	c-0.016,0.085-0.023,0.172-0.038,0.257c-0.039,0.239-0.074,0.48-0.096,0.722c-0.009,0.114-0.011,0.23-0.016,0.344
	c-0.012,0.218-0.023,0.435-0.02,0.653c0,0.028-0.003,0.057-0.003,0.085l3.627,181.17c0.001,0.048,0.012,0.096,0.013,0.144
	c0.013,0.401,0.051,0.802,0.113,1.199c0.012,0.074,0.019,0.149,0.032,0.223c0.077,0.433,0.183,0.861,0.316,1.284
	c0.023,0.07,0.048,0.139,0.073,0.209c0.126,0.373,0.276,0.739,0.448,1.098c0.028,0.058,0.052,0.118,0.082,0.175
	c0.196,0.391,0.421,0.772,0.671,1.141c0.043,0.062,0.09,0.121,0.135,0.182c0.21,0.292,0.436,0.574,0.681,0.848
	c0.077,0.086,0.152,0.174,0.233,0.257c0.054,0.056,0.101,0.117,0.156,0.174l85.133,85.133c1.971,1.971,4.553,2.956,7.136,2.956
	c2.582,0,5.165-0.985,7.136-2.956l88.771-88.771c1.892-1.892,2.954-4.459,2.954-7.135s-1.063-5.243-2.954-7.135l-77.998-77.998
	l70.486-70.486v52.288c0,5.573,4.516,10.09,10.09,10.09h130.671c5.574,0,10.09-4.518,10.09-10.09v-73.078
	c0-5.573-4.516-10.09-10.09-10.09l0,0C409.384,226.641,404.866,231.158,404.866,236.731z M114.939,416.777l74.5-74.5l70.864,70.864
	l-74.501,74.5L114.939,416.777z M110.282,392.894l-3.067-153.19l88.851-88.851h78.129v78.129L110.282,392.894z M125.329,20.181
	h148.866v110.492H125.329V20.181z"/>
<g>
</g>
<g>
</g>
<g>
</g>
<g>
</g>
<g>
</g>
<g>
</g>
<g>
</g>
<g>
</g>
<g>
</g>
<g>
</g>
<g>
</g>
<g>
</g>
<g>
</g>
<g>
</g>
<g>
</g>
</svg>
