<?xml version="1.0" encoding="utf-8"?>
<!-- Generator: Adobe Illustrator 22.0.1, SVG Export Plug-In . SVG Version: 6.00 Build 0)  -->
<svg version="1.1" id="Layer_1" xmlns="http://www.w3.org/2000/svg" xmlns:xlink="http://www.w3.org/1999/xlink" x="0px" y="0px"
	 viewBox="0 0 256 256" style="enable-background:new 0 0 256 256;" xml:space="preserve">
<style type="text/css">
	.st0{fill:#3A312A;}
	.st1{fill:#FCE8CB;}
	.st2{fill:#8AC5DC;}
	.st3{fill:#ED6E7A;}
	.st4{fill:#D7E057;}
	.st5{fill:#87796F;}
	.st6{fill:#695B51;}
	.st7{fill:#EF6D7A;}
	.st8{fill:#D6DF58;}
	.st9{fill:#6A5C52;}
	.st10{fill:#F16C7A;}
	.st11{fill:#8AC6DD;}
	.st12{fill:#D34E5C;}
	.st13{fill:#B9C239;}
	.st14{fill:#6CA8BF;}
	.st15{fill:#89C4DB;}
	.st16{fill:#D5DE58;}
	.st17{fill:#DECAAD;}
	.st18{fill:#D5DC57;}
	.st19{fill:#8AC3DA;}
	.st20{fill:#D4DB56;}
	.st21{fill:#EA6D7A;}
	.st22{fill:#FAE6CA;}
	.st23{fill:#EB6E7A;}
	.st24{fill:#F8E4C8;}
	.st25{fill:#E96C7A;}
	.st26{fill:#8AC2D9;}
	.st27{fill:#E86C7A;}
	.st28{fill:#8AC1D8;}
	.st29{fill:#D4DA55;}
</style>
<g>
	<g>
		<g>
			<path class="st18" d="M80,16.591c-14.656,0-28.141,4.978-38.887,13.318L30.945,39.77C21.92,50.737,16.5,64.78,16.5,80.091
				c0,35.07,28.43,63.5,63.5,63.5s63.5-28.43,63.5-63.5S115.07,16.591,80,16.591z"/>
		</g>
	</g>
	<g>
		<g>
			<path class="st0" d="M80,15.091c-14.549,0-28.314,4.714-39.807,13.634c-0.654,0.508-0.773,1.45-0.265,2.104
				c0.507,0.654,1.451,0.774,2.104,0.265C52.994,22.587,66.123,18.091,80,18.091c34.187,0,62,27.813,62,62s-27.813,62-62,62
				s-62-27.813-62-62c0-14.336,5.009-28.316,14.103-39.367c0.526-0.64,0.435-1.585-0.205-2.111
				c-0.641-0.525-1.585-0.435-2.111,0.205C20.251,50.403,15,65.062,15,80.091c0,35.841,29.159,65,65,65s65-29.159,65-65
				S115.841,15.091,80,15.091z"/>
		</g>
	</g>
	<g>
		<g>
			<circle class="st23" cx="193.617" cy="120.792" r="45.883"/>
		</g>
	</g>
	<g>
		<g>
			<path class="st0" d="M193.617,73.409c-26.127,0-47.383,21.256-47.383,47.383s21.256,47.383,47.383,47.383
				S241,146.919,241,120.792S219.744,73.409,193.617,73.409z M193.617,165.175c-24.473,0-44.383-19.91-44.383-44.383
				s19.91-44.383,44.383-44.383S238,96.319,238,120.792S218.09,165.175,193.617,165.175z"/>
		</g>
	</g>
	<g>
		<g>
			<path class="st19" d="M145.684,154.933l-12.707-5.667c-3.854-1.051-7.906-1.623-12.094-1.623
				c-25.34,0-45.883,20.542-45.883,45.883s20.542,45.883,45.883,45.883s45.883-20.542,45.883-45.883
				C166.766,177.326,158.362,163.097,145.684,154.933z"/>
		</g>
	</g>
	<g>
		<g>
			<path class="st0" d="M146.496,153.672c-0.697-0.449-1.625-0.249-2.073,0.448c-0.449,0.697-0.248,1.625,0.448,2.073
				c12.771,8.224,20.395,22.18,20.395,37.333c0,24.473-19.91,44.383-44.383,44.383S76.5,217.999,76.5,193.526
				s19.91-44.383,44.383-44.383c3.943,0,7.88,0.528,11.699,1.569c0.795,0.219,1.624-0.254,1.842-1.053s-0.254-1.624-1.053-1.842
				c-4.077-1.111-8.278-1.675-12.488-1.675c-26.127,0-47.383,21.256-47.383,47.383s21.256,47.383,47.383,47.383
				s47.383-21.256,47.383-47.383C168.266,177.349,160.127,162.449,146.496,153.672z"/>
		</g>
	</g>
	<g>
		<g>
			<path class="st12" d="M193.62,76.411c-2.56,0-5.06,0.22-7.5,0.63c20.91,3.58,36.88,21.83,36.88,43.75s-15.97,40.17-36.88,43.75
				c2.44,0.41,4.94,0.63,7.5,0.63c24.47,0,44.38-19.91,44.38-44.38S218.09,76.411,193.62,76.411z"/>
		</g>
	</g>
</g>
</svg>
